<?xml version="1.0" encoding="utf-8"?>
<!-- Generator: Adobe Illustrator 19.2.1, SVG Export Plug-In . SVG Version: 6.00 Build 0)  -->
<!DOCTYPE svg PUBLIC "-//W3C//DTD SVG 1.1//EN" "http://www.w3.org/Graphics/SVG/1.1/DTD/svg11.dtd">
<svg version="1.1" id="Layer_1" xmlns="http://www.w3.org/2000/svg" xmlns:xlink="http://www.w3.org/1999/xlink" x="0px" y="0px"
	 viewBox="0 0 433.7 531.3" style="enable-background:new 0 0 433.7 531.3;" xml:space="preserve">
<style type="text/css">
	.st0{fill:#FFC627;}
	.st1{fill:#003DA6;}
</style>
<g>
	<path class="st0" d="M52.1,472.7l37.1-18.9c2-1,3.3-1.5,3.9-1.6l0.3,0c0.6,0,1.4,0.2,2.4,0.7l0.3,0.1l1-1.1l0.3-0.3L83.3,439
		l-1.1,1.2l-0.2,0.3l0.2,0.3c0.6,0.8,0.9,1.5,0.9,2l-0.3,0.9c-0.4,0.4-1.2,1-2.5,1.6l-25.1,13l10.2-27c0.4-1.1,0.8-1.8,1-2.1
		l1.3-0.6c0.5,0,1.1,0.2,1.9,0.6l0.2,0.1l1-1.2l0.3-0.3l-14.9-13.3l-1.1,1.2l-0.2,0.3l0.2,0.2c0.6,0.8,0.8,1.4,0.8,1.9l-0.4,1
		c-0.1,0.2-0.8,0.7-2,1.2l-26.2,12.9l10.4-26.8c0.4-1.1,0.8-1.8,1.2-2.1l1.1-0.5l1.7,0.5l0.3,0.1l1-1.2l0.3-0.3l-14.3-12.8l-1.1,1.2
		l-0.2,0.2l0.2,0.3c0.7,0.9,1,1.7,1,2.5c0,0.8-0.3,2.2-1,4.2l-14.7,39c-0.7,1.9-1.3,3-1.4,3.1l-1.5,0.7l-1.7-0.6l-0.3-0.1l-1,1.2
		l-0.3,0.3l13.2,11.8l1.1-1.2l0.2-0.2l-0.2-0.3c-0.6-1-0.9-1.7-0.9-2.3l0.4-1c0.2-0.2,1.1-0.7,2.6-1.4l28.3-14.2l-10.8,29
		c-0.6,1.9-1.1,3-1.4,3.3l-1.3,0.7c-0.5,0-1.1-0.2-1.8-0.7l-0.3-0.2l-1,1.2l-0.3,0.3l13.4,12l1.1-1.2l0.3-0.3l-0.2-0.2
		c-0.7-0.8-0.9-1.5-0.9-2l0.4-1.1C49.3,474.3,50.3,473.6,52.1,472.7z M103.7,451.9l-0.1,0.3l0.2,0.2c0.7,0.7,1,1.3,1,1.9l-0.2,0.8
		c-0.3,0.6-1,1.4-2.1,2.2l-35.2,27.8c-1.3,1-2.2,1.7-2.8,1.8l-1,0.1l-1.4-0.2l-0.3-0.1l-0.7,1.4l-0.2,0.4l16.4,8l0.8-1.5l0.1-0.3
		l-0.3-0.2c-0.9-0.8-1.3-1.5-1.3-2.1l0.2-0.7c0.2-0.4,0.7-1,1.6-1.7l6.4-5.1l20.8,10.4v8c0,1.2-0.1,2-0.3,2.3c-0.4,0.7-0.9,1-1.7,1
		l-1.2-0.2l-0.3-0.1l-0.7,1.4l-0.1,0.3l18.1,8.9l0.7-1.5l0.1-0.3l-0.2-0.2c-0.8-0.6-1.4-1.3-1.6-2c-0.3-0.8-0.5-2.1-0.5-4l-0.2-45.3
		c0-1,0.2-1.9,0.4-2.4c0.3-0.6,0.8-0.9,1.8-0.9l0.8,0.1l1-1.3l0.2-0.4l-17.6-8.6L103.7,451.9z M105.9,486.9l-14.3-7.1l14.9-12.1
		L105.9,486.9z M183.8,479.6c-1.5-1.6-3.4-2.8-5.6-3.8c-2.3-0.9-5.3-1.8-9.3-2.6l-32.6-6.8l-0.4,1.6c1.1,0.9,1.6,1.3,1.7,1.7
		l0.2,0.8l0,0.7l-9.1,43.7l-0.7,1.4c-0.4,0.2-0.9,0.4-1.9,0.5l-0.7,1.5l-0.1,0.4l16.9,3.6l0.4-1.6c-1-0.8-1.5-1.2-1.7-1.6l-0.2-0.9
		l0.1-0.6l3.5-16.8l13.3,2.8l6.9,17.1c0.7,1.8,1.1,2.9,1.1,3.3v0.1c-0.1,0.3-0.4,0.5-1.5,0.6h-0.3l-0.7,1.5l-0.1,0.4l19.4,4l0.3-1.6
		l0.1-0.4l-0.4-0.1c-1.1-0.3-1.9-0.8-2.5-1.7c-0.7-0.8-1.6-2.7-2.8-5.5l-6.8-15.8h1c8.7,0,14.2-4.1,15.9-12.2
		c0.3-1.3,0.4-2.6,0.4-3.9c0-1.2-0.1-2.4-0.3-3.5C186.7,483.6,185.5,481.4,183.8,479.6z M175.2,490.9c-0.6,2.6-1.8,4.1-3.8,4.7
		c-0.7,0.2-1.5,0.4-2.3,0.4l-0.6,0c-1.1-0.1-2.9-0.4-5.4-0.9l-17-3.5l2.7-12.7l17,3.6c2.7,0.5,4.4,1,5.4,1.3
		c0.9,0.4,1.7,0.9,2.5,1.6c1.2,1,1.8,2.2,1.8,3.9L175.2,490.9z M245.2,521.7L234.7,508c8.9-1.9,13.5-7,13.4-15l0-0.9
		c-0.1-2.6-0.7-5-1.7-7.2c-1.2-2.3-2.8-4.2-4.9-5.4c-1.9-1.1-4-1.9-6.4-2.3c-1.7-0.3-3.8-0.4-6.3-0.4c-1,0-2.2,0-3.3,0.1l-32.9,1.3
		l-0.4,1.6c1.2,0.6,1.8,0.9,2.1,1.2c0.3,0.3,0.5,0.8,0.5,1.5l1.8,44.6v0.2l-0.4,1.4c-0.2,0.3-0.8,0.6-1.7,0.9l-0.3,1.6l16.9-0.3
		l0.3-1.7c-1.2-0.5-1.7-0.8-2-1.1c-0.3-0.3-0.5-0.8-0.6-1.5l-0.6-17l13.6-0.5l10.9,14.9c1.2,1.7,1.9,2.8,1.9,3v0
		c0,0.4-0.3,0.8-1.6,1.1l-0.3,1.6l19.4-0.3l0.4-1.7c-1.6-0.4-2.5-0.8-3.3-1.4C248.5,525.7,247.1,524.1,245.2,521.7z M192.9,478.6
		L192.9,478.6l1.1,0L192.9,478.6z M194.6,530.9L194.6,530.9L194.6,530.9L194.6,530.9z M233.1,529.3L233.1,529.3L233.1,529.3
		L233.1,529.3z M233.4,498c-0.8,0.5-1.8,0.8-2.8,1c-1,0.2-2.9,0.3-5.5,0.5l-17.3,0.7l-0.6-13.4l0.6,0l16.7-0.2
		c1.3-0.1,2.4-0.1,3.4-0.1c0.9,0,1.6,0.1,2.1,0.1c1,0.1,1.9,0.4,2.9,0.8c1.8,0.9,2.8,2.6,2.9,5.2l0,0.4
		C235.9,495.4,235,497,233.4,498z M276.1,520.1c-0.4-0.2-0.6-0.7-0.8-1.4l-9.6-43.6l-0.1-0.7l0.2-0.8c0.2-0.4,0.7-0.8,1.5-1.2l0-1.7
		l-0.1-0.4l-16.9,3.7l0.3,1.6c1.3,0.4,1.9,0.6,2.3,0.8l0.8,1.3l9.6,43.6l0.1,0.7l-0.2,0.8c-0.2,0.4-0.7,0.8-1.5,1.2l0.1,1.7l0.1,0.4
		l16.9-3.7l-0.4-1.6C277.1,520.6,276.5,520.4,276.1,520.1z M320.4,457.1c-2.8-1-5.8-1.5-8.9-1.5c-4.5,0-9.4,1.1-14.4,3.3
		c-11.3,5-17.8,12.5-19.3,22.3c-0.2,1.4-0.3,2.8-0.3,4.1c0,3.8,0.8,7.4,2.3,11c1.4,3.4,3.4,6.3,5.9,8.8c2.9,2.8,6.2,5,9.9,6.3
		c2.8,1,5.8,1.6,8.9,1.6c4.5,0,9.2-1.1,14.3-3.2c11.3-4.8,17.7-12.3,19.3-22.4c0.2-1.5,0.4-3,0.4-4.4c0-3.6-0.8-7.1-2.2-10.4
		C333.2,464.9,327.8,459.7,320.4,457.1z M326.3,484.5c0,2.7-0.5,5.1-1.6,7.4c-1.8,4-5,6.9-9.6,8.9c-2.7,1.1-5.3,1.7-7.8,1.7
		c-1.8,0-3.6-0.3-5.3-0.9c-4.9-1.7-8.5-5-10.6-10.1c-1.1-2.6-1.6-5.1-1.6-7.5c0-2.5,0.5-4.9,1.6-7.2c1.9-4,5.1-6.9,9.6-8.8
		c2.7-1.1,5.3-1.7,7.9-1.7c1.7,0,3.5,0.3,5.2,0.8c4.8,1.6,8.4,5,10.7,10.4c1,2.2,1.5,4.5,1.5,6.9V484.5z M401.8,453.3l-0.4,0.2
		c-0.8,0.6-1.7,0.8-2.7,0.9h-0.3c-1-0.1-3-0.6-6-1.4l-16.4-5.1c3.5-3.8,5.2-7.6,5.2-11.4c0-3.2-1.2-6.3-3.5-9.3
		c-1.6-2.1-3.5-3.7-5.6-4.9c-2-1.1-4-1.6-6.2-1.6l-1,0c-2.1,0.1-4.3,0.8-6.5,1.9c-2.2,1.1-4.9,2.9-8.1,5.4l-26.4,20.4l1,1.3l0.2,0.2
		l0.3-0.1l1.6-0.4l0.3,0l1.3,1l27.2,35.3l0.6,1.4v0.1c0,0.4-0.3,1-0.9,1.7l-0.2,0.3l0.9,1.2l0.3,0.3l13.6-10.6l-1-1.3l-0.2-0.3
		l-0.3,0.1l-1.6,0.4l-0.3,0l-1.3-0.9l-10.4-13.5l10.8-8.3l17.6,5.9c2,0.6,3.2,1.2,3.3,1.4l0.1,0.4l-0.8,1.4l-0.2,0.2l1,1.3l0.2,0.3
		l15.8-12.2l-1-1.3L401.8,453.3z M369.2,440.4c-0.4,0.9-1,1.7-1.7,2.4c-0.7,0.8-2.1,2-4.2,3.6l-13.8,10.6l-7.9-10.3l13.8-10.6
		c2.1-1.6,3.6-2.7,4.5-3.2c0.8-0.5,1.8-0.8,2.8-0.9l0.8-0.1c1.7,0,3.2,0.8,4.6,2.6c1,1.4,1.5,2.7,1.5,3.9L369.2,440.4z M433.4,407.6
		c-0.7-3.7-2.6-6.8-5.5-9.2c-1.9-1.5-4-2.6-6.2-3c-1.1-0.3-2.1-0.4-3.2-0.4c-1.2,0-2.3,0.2-3.5,0.4c-2,0.6-4,1.6-6,2.9
		c-1.9,1.3-4.2,3.3-6.8,5.8l-4.3,4.3c-2.8,2.9-4.8,4.7-5.8,5.4c-1,0.7-2,1-2.8,1c-0.7,0-1.4-0.2-2.1-0.8c-0.8-0.7-1.4-1.6-1.5-2.9
		l-0.1-1.1c0-0.9,0.2-2,0.5-3c0.8-2,2.1-4,3.8-6.1c3.8-4.7,8.4-7.8,13.7-9.4c0.8-0.2,1.5-0.4,2-0.4l1.2,0.3l0.4,0.4l1.6-0.4l0.4-0.2
		l-6-13.4l-0.4,0.2l-1.2,0.5c-0.2,1.3-0.4,1.9-0.6,2.2c-0.1,0.1-0.9,0.7-2.3,1.4c-4.2,2.3-7.5,4.3-9.9,6.1c-2.4,1.8-4.7,4.1-6.8,6.7
		c-4.7,5.8-7.1,11.3-7.1,16.6l0.1,1.4c0.3,4.3,2.3,8,5.9,10.8c2.1,1.7,4.5,2.8,6.9,3.2c0.7,0.1,1.4,0.2,2.2,0.2
		c1.9,0,3.8-0.4,5.5-1.2c1.7-0.7,3.3-1.7,4.6-2.8c1.3-1.1,3.4-3,6.2-5.9l4.3-4.2c2.8-2.8,4.9-4.6,6-5.2c0.8-0.5,1.5-0.6,2.2-0.6
		l2,0.8c0.8,0.7,1.4,1.6,1.7,2.8l0.2,1.8c0,0.7-0.1,1.4-0.2,2.1c-0.6,2.5-2,5.1-4.1,7.8c-2,2.4-4.5,4.6-7.5,6.6
		c-3,2.1-5.6,3.2-7.7,3.6l-1,0.1c-0.9,0-1.6-0.2-2.2-0.8l-0.4-0.3l-1.6,0.5l-0.4,0.2l6.8,13.3l1.5-0.7c0.3-1.2,0.4-1.9,0.5-1.9
		c0,0,0.9-0.6,2.3-1.3c6.9-3.2,12.6-7.5,17-13c2.5-3,4.4-6.2,5.8-9.5c1.4-3.3,2.1-6.2,2.1-9C433.7,409.4,433.6,408.5,433.4,407.6z"
		/>
	<path class="st0" d="M423.6,252.5c0,116.6-94.5,211.2-211.2,211.2C95.8,463.7,1.2,369.1,1.2,252.5c0-116.6,94.5-211.2,211.2-211.2
		C329.1,41.3,423.6,135.9,423.6,252.5"/>
	<path class="st1" d="M355.3,377.4c31.9-34.6,51.4-80.8,51.4-131.6c0-107.3-87-194.3-194.3-194.3C105,51.5,18,138.5,18,245.8
		c0,107.3,87,194.3,194.3,194.3c54.6,0,103.8-22.5,139.1-58.7C352.6,380.7,354,379.1,355.3,377.4z M161.1,369.1
		c77.6-3.6,154.6-2.4,186.6-1.6c-1.4,1.5-2.8,3-4.1,4.4C319.8,370.1,264.3,367.2,161.1,369.1z M47.2,265.9c2.8-4.2,5.8-8.8,8.9-13.8
		L44.7,317c-2.1-4.9-3.9-9.9-5.6-15L47.2,265.9z M36.4,292.7c-0.7-2.7-1.4-5.5-2-8.2c1.9-2.7,4-5.7,6.4-9.2L36.4,292.7z M61.3,243.8
		c4-6.6,8.2-13.6,12.3-21.1L53.9,335.4c-2.4-4.1-4.6-8.4-6.6-12.7L61.3,243.8z M79.4,212.2c5.1-9.7,10.1-19.8,14.7-30.1l-30,169.4
		c-2.6-3.7-5.1-7.4-7.5-11.2L79.4,212.2z M107.7,159.5c1,1.1,2,2.2,3,3.2c0.7,31.1,3,121.7,5.6,186.5c-1.4,0.2-2.8,0.3-4.1,0.5
		C109.3,281.4,108.1,195,107.7,159.5z M252.9,288.9l0.1,0.3l0,0L252.9,288.9c0.2,0.2,0.4,0.3,0.7,0.5l-0.6-0.2l15.5,49.2
		c-3.9,0.1-7.8,0.2-11.7,0.4l-19-60.3C243,282.1,248,285.6,252.9,288.9z M320.4,337.7l-3.9-12.2c14,6.6,24.6,10.5,31.1,12.6
		C338.4,337.9,329.4,337.8,320.4,337.7z M311.7,323.3l4.6,14.5c-4,0-8,0-11.9,0l-6.8-21.7C302.6,318.7,307.3,321.1,311.7,323.3z
		 M292.7,313.4l7.7,24.4c-3.8,0-7.7,0.1-11.5,0.1l-10.1-32.6C283.6,308.2,288.3,310.9,292.7,313.4z M273.8,302.4l11,35.6
		c-4.1,0.1-8.2,0.2-12.3,0.3l-14.6-46C263.4,295.9,268.7,299.3,273.8,302.4z M232.2,274.3l20.7,64.6c-3.8,0.1-7.6,0.3-11.3,0.5
		l-24.1-76.3C222.5,267,227.4,270.7,232.2,274.3z M211.8,258.6l25.7,80.9c-4.1,0.2-8.2,0.4-12.3,0.6l-30.5-95.6
		C200.5,249.5,206.2,254.2,211.8,258.6z M189.4,240l31.9,100.4c-3.7,0.2-7.3,0.4-11,0.6l-36.2-114.6
		C179.3,231.2,184.4,235.7,189.4,240z M168.2,221.1l38.1,120.2c-3.9,0.3-7.8,0.5-11.6,0.8l-43-136.7
		C157.3,210.8,162.8,216.1,168.2,221.1z M145,198.8l45.8,143.5c-3.8,0.3-7.5,0.6-11.2,0.8l-50.2-160.4
		C134.6,188.3,139.9,193.7,145,198.8z M123,176.2l52.6,167.4c-4.2,0.3-8.3,0.7-12.3,1l-39.8-127.9c-0.6-16.1-1.1-30.3-1.4-41.5
		C122.4,175.5,122.7,175.8,123,176.2z M92.8,273l-0.6-0.1L77.9,354c-4,0.5-7.5,1-10.6,1.5l26.5-149.4
		C93.5,226.1,93.1,249.5,92.8,273z M124.2,232.7l35.2,112.3c-3.5,0.3-7,0.6-10.3,0.9l-23.2-73.7
		C125.2,258.5,124.7,245.2,124.2,232.7z M126.6,288l18.5,58.2c-5.2,0.5-10.3,1-15.1,1.5C128.7,328.8,127.6,308.4,126.6,288z
		 M81.9,353.5l10.7-60.3c-0.2,21.2-0.4,41.6-0.3,59C88.6,352.6,85.2,353,81.9,353.5z M92.4,376.6c0,2.2,0.1,4.2,0.1,6.2
		c-2.2-1.9-4.4-3.9-6.5-5.9C88,376.8,90,376.7,92.4,376.6z M113.3,376c1.3,0,2.7-0.1,4.1-0.1c0.5,10.3,1,19.1,1.5,26.2
		c-1.4-0.8-2.8-1.7-4.2-2.6C114.2,392.2,113.8,384.4,113.3,376z M212.3,63.7c100.6,0,182.1,81.5,182.1,182.1
		c0,29.9-7.3,58.2-20.1,83.1C247.7,300.5,157.4,213,122.1,173.5c-0.5-14.7-0.7-23.8-0.7-23.8l-5.6-2.5l-5.3,4.6c0,0,0.1,3.1,0.2,8.4
		c-1.2-1.5-2.2-2.7-2.9-3.6c-0.1-8.5-0.1-13.4-0.1-13.4h-7.8l-0.1,4.7l-4.7,1.1c0,0-0.2,9.9-0.5,25.6C70.9,228.2,45,258.9,32.2,272
		c-1.2-8.6-1.9-17.3-1.9-26.2C30.3,145.2,111.8,63.7,212.3,63.7z M135.6,410.9c-1.3-9.8-2.5-21.8-3.6-35.4
		c56.6-1.2,143.3-1.7,203.3,4.4c-32.4,29.8-75.6,47.9-123.1,47.9C184.9,427.9,158.9,421.8,135.6,410.9z"/>
	<path class="st0" d="M35.8,107.9l-0.8-0.2l-5.5-4l-0.6-0.8c0-0.3,0.2-0.8,0.5-1.5l-0.9-0.7l-8.9,12.2l-1,0.9l-1.4-0.3l-0.6,0.9
		l6.2,4.6l0.7-0.9l-0.9-1.4l0.5-1.2l4.6-6.2l4.2,3c-0.4,1.3-1,2.8-1.8,4.5c-0.8,1.7-1.8,3.5-3.2,5.3c-0.9,1.2-1.9,2.3-3.1,3.2
		c-1.2,0.9-2.5,1.6-3.9,2c-1.4,0.4-2.9,0.5-4.4,0.2c-1.6-0.3-3.1-1-4.7-2.2c-1.6-1.2-2.8-2.5-3.5-3.9c-0.7-1.4-1.1-2.8-1.1-4.3
		c0-1.4,0.2-2.9,0.7-4.3c0.5-1.4,1.2-2.8,2.1-4c0.7-1,1.5-1.9,2.5-2.9c0.9-1,1.9-1.8,2.8-2.6c1-0.7,1.8-1.2,2.7-1.5
		c0.8-0.3,1.5-0.3,2,0.1l0.5,0.5l1-0.8l-4.3-7.5l-0.8,0.3l0,0.8L14.8,96l-1.2,1c-0.7,0.5-1.5,1.2-2.5,2c-1,0.8-2,1.8-3.2,3
		c-1.1,1.2-2.2,2.4-3.3,3.9c-1.7,2.3-2.9,4.6-3.6,6.9c-0.8,2.3-1.1,4.5-0.9,6.7c0.2,2.2,0.8,4.2,1.8,6.1c1.1,1.9,2.6,3.6,4.7,5.1
		c2,1.5,4.1,2.5,6.3,2.9c2.1,0.5,4.2,0.4,6.3-0.1c2.1-0.5,4.1-1.5,6-2.9c1.9-1.5,3.7-3.3,5.4-5.6c0.9-1.2,1.7-2.4,2.5-3.7
		c0.8-1.3,1.5-2.6,2.2-4c0.6-1.4,1.1-2.9,1.5-4.4c0.4-1.5,0.6-3.1,0.6-4.7l-0.8-0.6L35.8,107.9z M64.5,66.1c-1.9-2-3.9-3.4-6.2-4.1
		c-2.3-0.7-4.5-0.9-6.8-0.6c-2.3,0.3-4.5,1-6.6,2c-2.2,1.1-4,2.3-5.7,3.8c-1.6,1.5-3.1,3.2-4.3,5.3c-1.2,2-2.1,4.2-2.6,6.4
		c-0.5,2.2-0.5,4.5,0,6.8c0.5,2.3,1.6,4.5,3.5,6.5c1.9,2,3.9,3.4,6.2,4.1c2.3,0.7,4.5,0.9,6.8,0.6c2.3-0.3,4.5-1,6.6-2.1
		c2.1-1.1,4-2.4,5.6-3.9c1.6-1.5,3.1-3.2,4.4-5.2c1.3-2,2.2-4.1,2.7-6.4c0.5-2.3,0.5-4.5,0-6.8C67.5,70.3,66.4,68.2,64.5,66.1z
		 M61.8,79.2c-0.3,1.5-0.8,2.9-1.6,4.3c-0.8,1.4-1.8,2.6-2.9,3.6c-1.1,1-2.4,1.9-3.9,2.6c-1.5,0.7-2.9,1.1-4.4,1.3
		c-1.5,0.1-3,0-4.5-0.5c-1.5-0.5-2.8-1.3-3.9-2.6c-1.1-1.3-1.9-2.6-2.2-4.1c-0.3-1.5-0.3-3,0-4.5c0.3-1.5,0.8-2.9,1.7-4.3
		c0.8-1.4,1.8-2.6,2.9-3.6c1.1-1,2.4-1.9,3.9-2.6c1.4-0.7,2.9-1.1,4.4-1.3c1.5-0.1,3,0,4.5,0.5c1.4,0.5,2.7,1.3,3.9,2.6
		c1.1,1.2,1.9,2.6,2.2,4.1C62.1,76.2,62.1,77.7,61.8,79.2z M104.2,51.1l0.1,1.3l-1,1.1l-17,10.6L73.7,43.7c-0.4-0.6-0.1-1.2,0.9-1.8
		L73.9,41l-8.8,5.5l0.6,0.9c1-0.7,1.7-0.7,2.1,0l14.4,23.3c0.4,0.6,0.1,1.2-1,1.9l0.6,0.9l24.4-15.1l1.3-0.7l1,0.6l0.9-0.6l-4.3-7
		L104.2,51.1z M137.5,20c-1.5-1.5-3.1-2.7-4.9-3.3c-1.8-0.7-3.7-1-5.7-0.9c-2,0.1-4,0.6-6.1,1.4l-18.6,7.4l0.4,1
		c0.8-0.3,1.4-0.2,1.7,0.5l10.1,25.4c0.3,0.7,0,1.2-0.9,1.5l0.4,1l18.6-7.4c2-0.8,3.8-1.9,5.4-3.2c1.5-1.3,2.7-2.8,3.5-4.5
		c0.8-1.7,1.2-3.7,1.2-5.8c0-2.1-0.5-4.5-1.5-7C140.3,23.6,139,21.6,137.5,20z M135.4,37.6c-0.5,1.1-1.4,2.1-2.6,2.9
		c-1.2,0.8-2.7,1.6-4.4,2.3l-8.7,3.5l-7.9-19.8l8.7-3.4c1.8-0.7,3.4-1.2,4.8-1.4c1.4-0.2,2.7-0.1,3.9,0.3c1.1,0.4,2.2,1.2,3.1,2.3
		c0.9,1.1,1.8,2.6,2.6,4.6c0.8,2,1.2,3.6,1.3,5.1C136.2,35.2,136,36.4,135.4,37.6z M183.7,26l-0.4,1.2l-1.4,0.7l-19.8,3.8l-1.6-8.1
		l11.6-2.3c0.8-0.1,1.4-0.1,1.9,0c0.5,0.2,0.8,0.7,1,1.6l1.1-0.2l-1.8-9.2l-1.1,0.2c0.2,0.9,0.1,1.5-0.3,1.8c-0.4,0.3-1,0.5-1.8,0.7
		l-11.6,2.3l-1.4-7.3l19.2-3.7c0.8-0.2,1.4-0.2,1.8,0l0.7,0.9l1.1-0.2l-1.5-7.8l-1.1,0.2l-0.3,1.1c-0.3,0.3-0.9,0.6-1.7,0.7l-27,5.3
		l0.2,1.1l0.8,0.1l0.5,0.7l5.2,26.8l-0.2,0.9l-0.7,0.4l0.2,1.1l27.6-5.4l1.5-0.2l0.8,0.9l1.1-0.2l-1.6-8.1L183.7,26z M222,1.1
		c1,0,1.6,0.4,1.6,1.1v19.1L206.3,3.4c-0.8-0.8-1.2-1.4-1.2-1.7l0.5-0.6V0l-10.3,0l0,1.1c0.7,0,1.1,0.3,1.1,1.1v27.4
		c0,0.7-0.4,1.1-1.2,1.1l0,1.1h8.9l0-1.1c-0.9,0-1.4-0.3-1.4-1.1v-20l18.4,19.2l1,1.4l-0.8,0.5v1.1h9.8l0-1.1
		c-0.8,0-1.2-0.3-1.2-1.1l0-27.4c0-0.7,0.4-1.1,1.1-1.1V0H222V1.1z M273.6,14c0.6-0.3,1.3-0.5,2.1-0.6c0.8-0.1,1.7-0.1,2.6,0.1
		c1,0.1,1.9,0.3,2.7,0.5c1.1,0.3,2.2,0.7,3.3,1.3c1.1,0.5,2,1.1,2.9,1.7c0.9,0.6,1.6,1.2,2.2,1.9l1.2,1.8l0.1,1.5l0.5,0.4l6-6.2
		l-0.6-0.6l-1.3,0l-1.8-1c-0.7-0.5-1.5-1.1-2.5-1.8c-1-0.7-2.2-1.4-3.6-2.1c-1.4-0.7-3.2-1.4-5.2-2c-2.4-0.6-4.6-0.9-6.5-0.9
		c-1.9,0.1-3.6,0.4-5,0.9c-1.4,0.6-2.6,1.4-3.5,2.4c-0.9,1-1.5,2.1-1.8,3.3c-0.5,1.8-0.6,3.3-0.2,4.6c0.4,1.3,1,2.4,1.9,3.3
		c0.9,1,2.1,1.8,3.4,2.4c1.3,0.7,2.7,1.3,4.2,1.8c1.4,0.5,2.9,1,4.2,1.5c1.4,0.4,2.6,0.9,3.7,1.4c1,0.5,1.8,1.1,2.4,1.7
		c0.5,0.6,0.7,1.4,0.4,2.3c-0.2,0.9-0.8,1.5-1.7,1.8c-0.9,0.3-1.9,0.5-3,0.6c-1.1,0-2.2-0.1-3.2-0.3c-1-0.2-1.9-0.4-2.6-0.6
		c-0.9-0.3-1.9-0.6-2.9-1.2c-1.1-0.5-2.1-1.1-3-1.8c-0.9-0.6-1.7-1.3-2.4-1.9l-1.2-1.8l0-1l-0.5-0.4l-5.2,6.1l0.7,0.7l0.9-0.2
		l1.4,0.8c0.5,0.5,1.2,1,2.1,1.6c0.9,0.7,2,1.3,3.5,2c1.4,0.7,3.2,1.3,5.4,1.9c1.6,0.4,3.3,0.8,5.2,1.1c1.9,0.3,3.8,0.3,5.6,0
		c1.8-0.3,3.4-0.9,4.8-1.9c1.4-1,2.4-2.5,3-4.5c0.5-1.7,0.5-3.3,0.2-4.5c-0.4-1.3-1-2.4-1.9-3.3c-0.9-0.9-2.1-1.8-3.4-2.4
		c-1.3-0.7-2.7-1.3-4.2-1.8c-1.4-0.5-2.8-1-4.2-1.5c-1.4-0.5-2.6-1-3.7-1.5c-1-0.5-1.8-1.1-2.4-1.8c-0.5-0.7-0.7-1.4-0.4-2.4
		L273.6,14z M314.6,53.1l10.3-21.7l9,4.3l0.8,0.7l0,1.2l1,0.5l3.6-7.6l-1-0.5l-1,0.8l-1.1-0.2L312,19.2l-0.8-0.7l0-1.3l-1-0.5
		l-3.6,7.6l1,0.5l0.9-0.8l1.1,0.2l9,4.3l-10.3,21.7l-0.7,0.6l-0.8-0.1l-0.5,1l8.4,4l0.5-1C314.5,54.3,314.3,53.7,314.6,53.1z
		 M352.3,41.7l0.6,0.8l-0.1,0.9l-0.9,0.8l-1.4,0.8l-22.4,13.2l-1.6,0.8l-1.5,0l-0.6,0.9l7.1,4.8l0.6-0.9l-0.6-1.2
		c0.2-0.3,0.7-0.7,1.5-1.1l4.2-2.3l12.2,8.2l-0.6,5c-0.1,0.7-0.3,1.2-0.5,1.6l-0.6,0.2l-0.6-0.2l-0.6,0.9l8.8,5.9l0.6-0.9l-0.6-1.2
		l-0.2-1.3l3.4-27.3l0.2-1.4l0.4-0.9l0.8-0.5l0.9,0.2l0.6-0.9l-8.4-5.7L352.3,41.7z M350.1,62.3l-8.9-6l11-6.1L350.1,62.3z
		 M387,74.6l7.3,6.7l0.6,0.9l-0.4,1.2l0.8,0.7l5.7-6.2l-0.8-0.7l-1.2,0.5l-1-0.5l-19.7-18.1l-0.6-0.9l0.4-1.2l-0.8-0.7l-5.7,6.2
		l0.8,0.7l1.1-0.5l1,0.5l7.3,6.7l-16.3,17.6l-0.8,0.4l-0.7-0.3l-0.7,0.8l6.8,6.3l0.7-0.8l-0.2-1.7L387,74.6z M428.1,111.5l-1.1,0.2
		l-1.4-1.2l-16.8-21.8l-0.8,0.7l0.2,0.7l-0.4,0.8L386,107.6l-0.8,0.2l-0.7-0.4l-0.9,0.7l17.1,22.3l0.8,1.2l-0.5,1.1l0.7,0.9l6.5-5
		l-0.7-0.9l-1.3,0.3l-1.2-0.9l-12.3-16l6.6-5l7.2,9.3l0.8,1.7c0.1,0.5-0.3,1.1-1,1.6l0.7,0.8l7.5-5.7l-0.7-0.9
		c-0.7,0.6-1.3,0.8-1.7,0.5l-1.4-1.3l-7.2-9.3l5.9-4.6l11.9,15.5l0.8,1.6l-0.5,1l0.7,0.9l6.3-4.8L428.1,111.5z"/>
</g>
</svg>
