<?xml version="1.0" encoding="utf-8"?>
<!-- Generator: Adobe Illustrator 21.0.2, SVG Export Plug-In . SVG Version: 6.00 Build 0)  -->
<!DOCTYPE svg PUBLIC "-//W3C//DTD SVG 1.1//EN" "http://www.w3.org/Graphics/SVG/1.1/DTD/svg11.dtd">
<svg version="1.1" id="Layer_1" xmlns="http://www.w3.org/2000/svg" xmlns:xlink="http://www.w3.org/1999/xlink" x="0px" y="0px"
	 viewBox="0 0 536.9 241.4" style="enable-background:new 0 0 536.9 241.4;" xml:space="preserve">
<style type="text/css">
	.st0{fill:#FFC425;}
</style>
<g>
	<g>
		<path class="st0" d="M71.7,35.1l10,12.7l-2.9,17L60,66.2l1.5-8.5l-2.6-3.4l-11.9,0.9l-4.2,4.2L40.6,72l32.5,18.3l-5.5,32.1
			l-14.9,14.7l-31.5,2.4L11,126.9l3-17.3l18.8-1.5l-1.4,8.7l2.7,3.4l11.9-1l4.3-4.2l2.1-12.1L19.8,84.7L25.4,52l14.8-14.5L71.7,35.1
			z"/>
		<path class="st0" d="M150.8,29.2l-3.2,18.4l-21.7,1.7l-14.3,83.3l-19,1.4L107,50.7l-21.3,1.5l3.2-18.4L150.8,29.2z"/>
		<path class="st0" d="M201.9,25.3l10.1,12.6L205.1,77L192,89.9l10,35.9l-20.8,1.6l-8.3-35l-7.5,0.6l-6.1,36.1l-19,1.4l17.4-101.8
			L201.9,25.3z M168.6,74.4l14.6-1.1l4.9-4.6l3.4-20l-3.2-4l-14.8,1.1L168.6,74.4z"/>
		<path class="st0" d="M278.2,19.5L275,38l-36.4,2.8l-3.8,21.9l27.4-2.1l-3.1,18.2l-27.4,2l-4.3,24.9l36.4-2.7l-3.2,18.4l-55.2,4.2
			l1.2-7.5l16.2-94.3L278.2,19.5z"/>
		<path class="st0" d="M316.3,64.1l8.2-48.1l17.4-1.3l-17.5,101.8l-15.1,1.1l-14.2-51.1l-9,52.8l-17.5,1.3L286.1,19l16.1-1.2
			L316.3,64.1z"/>
		<path class="st0" d="M393.5,10.8l10.2,12.6l-3.1,18.2l-18.9,1.4l1.7-9.7l-2.6-3.5l-12,0.9l-4.3,4.2l-9.8,57.3l2.7,3.4l12-0.9
			l4.1-4l2.1-12l-7.9,0.6l3.1-18.3l26.8-2l-6.7,39l-14.8,14.4l-31.6,2.4l-10.1-12.6l12.8-74.7l14.8-14.5L393.5,10.8z"/>
		<path class="st0" d="M474.1,4.7l-3.2,18.4l-21.7,1.7l-14.3,83.3l-19,1.4l14.3-83.3l-21.3,1.5l3.2-18.4L474.1,4.7z"/>
		<path class="st0" d="M536.9,0l-17.3,101.8l-19.1,1.4l6.8-39.5l-18.1,1.4l-6.9,39.5l-18.8,1.4L481.1,4.2l18.8-1.4l-7.1,41.9
			l18.1-1.4l7.1-41.9L536.9,0z"/>
	</g>
	<g>
		<path class="st0" d="M15.3,152.3l16.5-1.2l-15.3,89.1L0,241.4L15.3,152.3z"/>
		<path class="st0" d="M65,190.1l7.2-42.1l15.2-1.1l-15.3,89.1l-13.2,1l-12.5-44.7l-7.9,46.2l-15.3,1.2l15.3-89.1l14.1-1.1L65,190.1
			z"/>
		<path class="st0" d="M144.8,184L152,142l15.2-1.2l-15.3,89.1l-13.2,1l-12.5-44.7l-7.9,46.2l-15.3,1.2l15.3-89.1l14.1-1.1
			L144.8,184z"/>
		<path class="st0" d="M222.6,136.6l-13.5,77.9l-12.2,12l-27.7,2.1l-8.7-10.9l13.3-77.4l16.2-1.2L178,209l2.4,2.9l10.3-0.8l3.5-3.6
			l12-69.7L222.6,136.6z"/>
		<path class="st0" d="M291.6,131.5l-15.3,89l-14.6,1.1l9.1-53.3l-16.3,32.3l-11,0.8l-5.5-30.6l-9.3,53.3l-14.9,1.1l15.4-89
			l19.3-1.5l5.8,34.2l18.1-36L291.6,131.5z"/>
		<path class="st0" d="M346.6,138.9l-4.1,24l-8.1,7.9l5.5,6.8l-4.6,27L322.8,217l-38.9,2.9l15.3-89.1l38.6-2.9L346.6,138.9z
			 M322.5,184.5l-2.8-3.6l-14.2,8.3l-2.4,13.7l12.8-1l4.3-4.1L322.5,184.5z M308.6,171.3l14.2-8.2l4.1-4.1l1.7-10.1l-2.9-3.5
			l-12.8,1L308.6,171.3z"/>
		<path class="st0" d="M404.4,122.9l-2.8,16.2l-31.9,2.4l-3.3,19.1l24-1.8l-2.7,15.9l-24,1.8l-3.7,21.8l31.9-2.3L389,212l-48.3,3.6
			l1.1-6.6l14.2-82.5L404.4,122.9z"/>
		<path class="st0" d="M450,119.4l8.8,11l-5.9,34.2L441.4,176l8.7,31.4l-18.2,1.4l-7.2-30.7l-6.6,0.5l-5.4,31.6l-16.6,1.3l15.2-89.1
			L450,119.4z M420.9,162.4l12.8-1l4.3-4.1l3-17.5l-2.8-3.5l-12.9,1L420.9,162.4z"/>
		<path class="st0" d="M507.4,115.1l8.8,11.1l-2.5,14.9l-16.5,1.2l1.3-7.5l-2.3-3l-10.4,0.8l-3.7,3.7l-1.9,11l28.4,16l-4.8,28.1
			l-13.1,12.9l-27.6,2.1l-8.8-11l2.6-15.2l16.5-1.3l-1.2,7.6l2.4,3l10.4-0.8l3.7-3.7l1.8-10.6l-28.5-16l4.9-28.6l12.9-12.7
			L507.4,115.1z"/>
	</g>
</g>
</svg>
